Coordinates
version=1
nRows=8
nColumns=40
inDegrees=yes

Units are S.I. units (second, meters, Newtons, ...)
Angles are in degrees.

endheader
time	pelvis_tilt	pelvis_list	pelvis_rotation	pelvis_tx	pelvis_ty	pelvis_tz	hip_flexion_r	hip_adduction_r	hip_rotation_r	knee_angle_r	knee_angle_r_beta	ankle_angle_r	subtalar_angle_r	mtp_angle_r	hip_flexion_l	hip_adduction_l	hip_rotation_l	knee_angle_l	knee_angle_l_beta	ankle_angle_l	subtalar_angle_l	mtp_angle_l	lumbar_extension	lumbar_bending	lumbar_rotation	arm_flex_r	arm_add_r	arm_rot_r	elbow_flex_r	pro_sup_r	wrist_flex_r	wrist_dev_r	arm_flex_l	arm_add_l	arm_rot_l	elbow_flex_l	pro_sup_l	wrist_flex_l	wrist_dev_l
     46.55000000	     -3.02894959	     -5.92720525	      4.04854549	      1.08302342	      0.93209401	      0.47710361	     11.54187861	      3.78507908	    -18.12183194	     14.43998027	     14.43998027	      8.82925023	      4.35897198	     -6.27161909	     29.11958825	    -12.54042694	      1.20159515	     67.19868829	     67.19868829	      9.70575024	    -18.13287487	     10.33912249	     -9.46962590	      8.30732642	      4.70675684	     12.97544284	    -14.23796704	    -14.21530893	     27.48626074	     45.98709241	      0.00000000	      0.00000000	     10.81543631	     -8.39278278	      1.28501742	     54.62475827	     45.97787071	      0.00000000	      0.00000000
     46.56150000	     -3.01901510	     -5.90756344	      4.28286155	      1.08151404	      0.93252363	      0.47789300	     10.60632620	      3.99422368	    -18.12986877	     13.74434580	     13.74434580	      9.09551795	      4.41077872	     -6.29922742	     30.73692289	    -12.25519904	      1.36886978	     65.64397800	     65.64397800	      9.73949987	    -18.05284401	     10.29571528	     -9.61568312	      8.18544474	      4.55227228	     15.86486469	    -14.43736383	    -14.21591312	     28.65216620	     45.97118496	      0.00000000	      0.00000000	      8.91266078	     -8.40173232	      1.62304364	     52.35501698	     45.91991797	      0.00000000	      0.00000000
     46.57300000	     -2.96076162	     -5.88039064	      4.51493501	      1.08010880	      0.93296199	      0.47866316	      9.59713098	      4.19757674	    -18.20507396	     13.00973812	     13.00973812	      9.34449431	      4.63282420	     -6.37347151	     32.06977398	    -11.95782860	      1.47718139	     63.74432002	     63.74432002	      9.64605162	    -17.94549041	     10.27063564	     -9.81257933	      8.06429877	      4.44979511	     18.73594794	    -14.61816618	    -14.06454505	     29.65582566	     45.95045420	      0.00000000	      0.00000000	      7.36260611	     -8.31795389	      1.93748128	     49.35531935	     45.86183123	      0.00000000	      0.00000000
     46.58450000	     -2.89230634	     -5.85116452	      4.73360106	      1.07878236	      0.93331094	      0.47934436	      8.57108242	      4.39727280	    -18.28846647	     12.25553756	     12.25553756	      9.56236787	      4.91029552	     -6.47295288	     33.17052077	    -11.62594508	      1.56325024	     61.51355915	     61.51355915	      9.48401227	    -17.85607897	     10.35947987	    -10.00302918	      7.95227896	      4.46575939	     21.56750861	    -14.86676798	    -13.78851308	     30.54628699	     45.92595001	      0.00000000	      0.00000000	      6.09443448	     -8.11332678	      2.22099527	     45.83244025	     45.80622206	      0.00000000	      0.00000000
     46.59600000	     -2.85340198	     -5.85831217	      4.91078068	      1.07752219	      0.93349649	      0.47999779	      7.61348463	      4.62976750	    -18.37979639	     11.55802256	     11.55802256	      9.76836064	      5.15351080	     -6.59968110	     34.10167321	    -11.34697847	      1.57765168	     58.94927087	     58.94927087	      9.33967040	    -17.75333777	     10.55460306	    -10.16874900	      7.84960434	      4.59005968	     24.19088751	    -15.25232631	    -13.43455194	     31.38140569	     45.89734312	      0.00000000	      0.00000000	      5.06347393	     -7.82170595	      2.44133863	     42.22315564	     45.75909740	      0.00000000	      0.00000000
     46.60750000	     -2.87251908	     -5.84631661	      5.05288579	      1.07631860	      0.93344970	      0.48051320	      6.72895478	      4.82413887	    -18.42637682	     10.87483004	     10.87483004	      9.92923259	      5.42146511	     -7.02643468	     34.91358249	    -11.06134000	      1.51083048	     56.08253658	     56.08253658	      9.08291793	    -17.54108572	     10.54731792	    -10.18880474	      7.80163648	      5.35681106	     26.48241212	    -16.11189722	    -12.33692869	     32.00041578	     45.84371042	      0.00000000	      0.00000000	      5.20466878	     -7.02980610	      2.34546401	     36.12196874	     45.76951674	      0.00000000	      0.00000000
     46.61900000	     -2.88939070	     -5.88916861	      5.20952646	      1.07522420	      0.93327164	      0.48098402	      5.80967609	      5.09884737	    -18.41706875	     10.12459273	     10.12459273	     10.13466912	      5.63649231	     -7.07074788	     35.56483072	    -10.77377684	      1.52880675	     52.91755321	     52.91755321	      8.96379430	    -17.30077565	     10.83103458	    -10.31288415	      7.75575111	      5.26252923	     28.98180610	    -16.25780953	    -11.98546035	     33.60138329	     45.78362405	      0.00000000	      0.00000000	      3.65589383	     -6.99091486	      2.36653226	     33.80138562	     45.74431443	      0.00000000	      0.00000000
     46.63050000	     -2.90974233	     -5.91717209	      5.34394659	      1.07426429	      0.93298703	      0.48138530	      4.86883087	      5.35970212	    -18.39021574	      9.35066995	      9.35066995	     10.35164007	      5.90949179	     -7.17930942	     36.01438864	    -10.49586506	      1.46135387	     49.39883910	     49.39883910	      8.78870207	    -16.93444205	     10.99268466	    -10.40335105	      7.67035909	      5.20950606	     31.36765742	    -16.44995096	    -11.44731341	     35.24569397	     45.71059458	      0.00000000	      0.00000000	      2.33879631	     -6.89568032	      2.40839683	     31.06814238	     45.72090782	      0.00000000	      0.00000000
